# xmcd
# 
# Track frame offsets:
#     150
#     19807
#     35425
#     55462
#     76387
#     94975
#     119062
#     138950
#     158525
#     180500
# 
# Disc length: 2721
# 
# Revision: 5
# Processed by: cddbd v1.5.2PL0 Copyright (c) Steve Scherf et al.
# Submitted via: BonkEnc v1.0.8
# 
DISCID=7f0a9f0a
DTITLE=松田聖子 - Precious Moment
DYEAR=1989
DGENRE=JPop
TTITLE0=Chase My Dreams 〜明日へのStep
TTITLE1=手のひらのSnowflake
TTITLE2=Precious Heart
TTITLE3=冬のマリーナ 〜潮風に乗せて
TTITLE4=Forever Love
TTITLE5=あなたにありがとう
TTITLE6=月夜のDancing Beat
TTITLE7=今も、Playboy
TTITLE8=二人だけのChristmas
TTITLE9=バラ色の扉
EXTD=YEAR: 1989
EXTT0=
EXTT1=
EXTT2=
EXTT3=
EXTT4=
EXTT5=
EXTT6=
EXTT7=
EXTT8=
EXTT9=
PLAYORDER=
